<svg width="30" height="30" viewBox="0 0 30 30" fill="none" xmlns="http://www.w3.org/2000/svg">
<path fill-rule="evenodd" clip-rule="evenodd" d="M28.275 15.3141C28.275 14.3338 28.1871 13.3904 28.0236 12.4857H15V17.8348H22.442C22.1215 19.5633 21.1471 21.0275 19.6828 22.0084V25.4777H24.1518C26.7668 23.0701 28.275 19.5252 28.275 15.3141Z" fill="#4285F4"/>
<path fill-rule="evenodd" clip-rule="evenodd" d="M15 28.8281C18.7336 28.8281 21.8637 27.59 24.1518 25.4777L19.6828 22.0084C18.4447 22.8381 16.8604 23.3285 15 23.3285C11.3982 23.3285 8.35019 20.8963 7.26269 17.6273H2.64258V21.2104C4.91777 25.7297 9.59414 28.8281 15 28.8281Z" fill="#34A853"/>
<path fill-rule="evenodd" clip-rule="evenodd" d="M7.2627 17.6273C6.98613 16.7977 6.8291 15.9111 6.8291 15C6.8291 14.0889 6.98613 13.2023 7.2627 12.3727V8.78964H2.64258C1.70625 10.6564 1.17188 12.7687 1.17188 15C1.17188 17.2312 1.70625 19.3435 2.64258 21.2103L7.2627 17.6273Z" fill="#FBBC05"/>
<path fill-rule="evenodd" clip-rule="evenodd" d="M15 6.67148C17.0303 6.67148 18.8531 7.36934 20.2863 8.73926L24.2525 4.77305C21.8572 2.54238 18.7271 1.17188 15 1.17188C9.59473 1.17188 4.91777 4.2709 2.64258 8.78965L7.2627 12.3727C8.3502 9.1043 11.3988 6.67148 15 6.67148Z" fill="#EA4335"/>
</svg>
